<?xml version="1.0" encoding="utf-8"?>
<svg width="800px" height="800px" viewBox="0 0 750 605" xmlns="http://www.w3.org/2000/svg">
    <rect width="24" height="24" fill="none"/>
    <path d="M276.385 539.13C253.238 572.277 217.912 594.915 178.126 602.098C138.34 609.281 97.3282 600.424 64.0517 577.464C38.0854 558.735 18.5863 532.395 8.2555 502.092C-2.07526 471.789 -2.72626 439.023 6.39271 408.333C15.5117 377.644 33.9492 350.55 59.1511 330.805C84.353 311.06 115.072 299.641 147.052 298.13V345.797C131.394 347.032 116.209 351.742 102.601 359.584C88.993 367.426 77.3041 378.203 68.385 391.13C52.6488 413.821 46.5491 441.824 51.4227 469.003C56.2962 496.182 71.7455 520.321 94.385 536.13C117.163 551.424 145.075 557.065 172.004 551.817C198.933 546.568 222.684 530.859 238.052 508.13C247.951 493.815 254.345 477.373 256.718 460.13V426.797H442.718L445.052 423.13C451.391 412.519 460.727 404.019 471.885 398.7C483.043 393.381 495.525 391.481 507.761 393.239C519.996 394.997 531.438 400.334 540.648 408.578C549.858 416.823 556.424 427.607 559.519 439.574C562.615 451.541 562.102 464.157 558.046 475.833C553.99 487.51 546.571 497.726 536.723 505.196C526.874 512.667 515.037 517.058 502.699 517.817C490.362 518.576 478.075 515.67 467.385 509.464C454.27 502.263 444.38 490.348 439.718 476.13H304.052C299.312 498.826 289.889 520.283 276.385 539.13ZM519.052 301.13C539.998 302.007 560.534 307.216 579.366 316.429C598.197 325.642 614.913 338.659 628.46 354.658C642.007 370.657 652.09 389.291 658.073 409.384C664.056 429.476 665.808 450.59 663.219 471.394C660.63 492.198 653.756 512.239 643.032 530.252C632.307 548.265 617.964 563.86 600.909 576.051C583.854 588.242 564.457 596.765 543.942 601.081C523.427 605.398 502.24 605.415 481.718 601.13C458.3 598.4 435.818 590.341 415.999 577.571C396.18 564.801 379.55 547.66 367.385 527.464L408.718 505.797C417.269 519.037 428.631 530.232 441.997 538.585C455.362 546.939 470.403 552.246 486.052 554.13C499.315 555.772 512.772 554.785 525.654 551.226C538.536 547.667 550.591 541.605 561.131 533.387C571.67 525.169 580.488 514.956 587.08 503.33C593.672 491.704 597.91 478.894 599.552 465.63C601.193 452.367 600.206 438.91 596.647 426.028C593.088 413.146 587.026 401.091 578.808 390.551C570.59 380.012 560.377 371.194 548.751 364.602C537.125 358.01 524.315 353.772 511.052 352.13C493.816 350.19 476.366 352.243 460.052 358.13L431.718 372.797L345.718 212.464H338.385C321.765 211.889 306.054 204.736 294.708 192.577C289.09 186.557 284.712 179.489 281.826 171.777C278.94 164.065 277.6 155.86 277.885 147.63C278.17 139.401 280.072 131.308 283.484 123.814C286.897 116.32 291.751 109.571 297.772 103.953C309.93 92.607 326.098 86.5557 342.718 87.1304C359.43 87.8226 375.215 94.9963 386.727 107.13C398.239 119.265 404.573 135.405 404.385 152.13C403.751 166.273 398.346 179.785 389.052 190.464L452.385 307.464C473.901 300.624 496.632 298.464 519.052 301.13ZM202.718 210.464C194.97 192.144 190.906 172.478 190.759 152.588C190.611 132.698 194.383 112.974 201.858 94.5416C209.333 76.1092 220.365 59.3296 234.325 45.1608C248.285 30.9921 264.899 19.7117 283.218 11.9637C301.538 4.21571 321.204 0.151853 341.094 0.00417506C360.984 -0.143503 380.708 3.62788 399.14 11.103C417.573 18.5781 434.352 29.6106 448.521 43.5705C462.69 57.5304 473.97 74.1443 481.718 92.4637C491.078 114.076 495.345 137.55 494.189 161.074C493.033 184.597 486.485 207.54 475.052 228.13L433.718 205.797C440.97 191.812 445.003 176.382 445.522 160.637C446.042 144.892 443.033 129.23 436.718 114.797C432.319 101.534 425.233 89.3195 415.903 78.9172C406.572 68.5149 395.197 60.1478 382.488 54.3382C369.779 48.5287 356.009 45.4014 342.038 45.1517C328.066 44.902 314.193 47.5352 301.284 52.8869C288.376 58.2386 276.709 66.1939 267.013 76.2562C257.317 86.3184 249.799 98.2715 244.928 111.369C240.058 124.467 237.94 138.428 238.707 152.381C239.474 166.334 243.109 179.979 249.385 192.464C258.56 213.658 274.346 231.315 294.385 242.797L307.385 249.797L205.052 416.464C206.368 418.46 207.485 420.581 208.385 422.797C213.854 433.846 215.942 446.264 214.388 458.494C212.834 470.724 207.706 482.225 199.648 491.555C191.59 500.886 180.958 507.632 169.084 510.95C157.21 514.267 144.621 514.009 132.894 510.206C121.166 506.404 110.82 499.227 103.152 489.573C95.4833 479.92 90.8327 468.218 89.7821 455.935C88.7315 443.651 91.3277 431.33 97.2455 420.514C103.163 409.699 112.14 400.869 123.052 395.13C135.586 388.352 150.149 386.34 164.052 389.464L241.052 263.797C224.415 249.138 211.31 230.905 202.718 210.464Z" fill="white"/>
</svg>
